# xmcd
#
# Track frame offsets:
#  150
#  16741
#  38033
#  50022
#  69121
#  83929
#  103492
#  120938
#  135475
#  151851
#  167103
#  180740
#
# Disc length: 2887 seconds
#
# Revision: 0
# Processed by: cddbd v1.4PL0 Copyright (c) Steve Scherf et al.
# Submitted via: AltoMP3_Maker 3.0
#
DISCID=910b450c
DTITLE=Honeybrowne - Real
DYEAR=1900
DGENRE=
TTITLE0=Who Do You Think I Am
TTITLE1=Baby Baby
TTITLE2=Tired Of This Town
TTITLE3=Real
TTITLE4=Me and Smitty
TTITLE5=Time Moves On
TTITLE6=Amazing
TTITLE7=Goodbye
TTITLE8=For So Long
TTITLE9=Hey Hey
TTITLE10=College Days 
TTITLE11=Untitled
EXTD=
EXTT0=
EXTT1=
EXTT2=
EXTT3=
EXTT4=
EXTT5=
EXTT6=
EXTT7=
EXTT8=
EXTT9=
EXTT10=
EXTT11=
PLAYORDER=
